<?xml version="1.0" encoding="utf-8"?>
<!-- Generator: Adobe Illustrator 25.4.1, SVG Export Plug-In . SVG Version: 6.00 Build 0)  -->
<svg version="1.1" xmlns="http://www.w3.org/2000/svg" xmlns:xlink="http://www.w3.org/1999/xlink" x="0px" y="0px"
	 viewBox="0 0 453.9 500" style="enable-background:new 0 0 453.9 500;" xml:space="preserve">
<style type="text/css">
	.st0{fill:#5C2751;}
	.st1{opacity:0.7;fill:#FFFFFF;}
	
		.st2{fill:none;stroke:#000000;stroke-width:1.1031;stroke-linecap:round;stroke-linejoin:round;stroke-miterlimit:10;stroke-dasharray:4.4124;}
	.st3{opacity:0.5;fill:#FFFFFF;}
	.st4{fill:#FFFFFF;stroke:#000000;stroke-width:1.1031;stroke-linecap:round;stroke-linejoin:round;stroke-miterlimit:10;}
	.st5{opacity:0.2;fill:#FFFFFF;}
	.st6{fill:#5C2751;stroke:#000000;stroke-width:1.1031;stroke-miterlimit:10;}
	.st7{fill:none;stroke:#000000;stroke-width:1.1031;stroke-miterlimit:10;}
	.st8{opacity:0.2;}
	.st9{fill:#FFFFFF;stroke:#222221;stroke-width:1.1031;stroke-miterlimit:10;}
	.st10{fill:#FFFFFF;}
	.st11{fill:none;stroke:#000000;stroke-width:1.1031;stroke-linecap:round;stroke-linejoin:round;stroke-miterlimit:10;}
	.st12{fill:none;stroke:#000000;stroke-width:2.2062;stroke-linecap:round;stroke-linejoin:round;stroke-miterlimit:10;}
	
		.st13{opacity:0.2;fill:none;stroke:#FFFFFF;stroke-width:1.1031;stroke-linecap:round;stroke-linejoin:round;stroke-miterlimit:10;}
	.st14{fill:none;stroke:#FFFFFF;stroke-width:1.1031;stroke-linecap:round;stroke-linejoin:round;stroke-miterlimit:10;}
</style>
<g id="Background_Simple">
	<g>
		<path class="st0" d="M433.8,209.1c-48.7-83.5-181-53.7-208-94.3C212,94,196.5,69.9,174.1,57.3c-21.4-11.9-46.2-16.2-67.8-14.6
			C29.1,48.4-3.7,117.4,11.2,193.3C31,294.5,120.7,397.9,227.2,398.6C283,399,336.2,379,377.9,350.9c0.3-0.2,0.6-0.4,0.9-0.6
			C420.6,321.9,471,272.8,433.8,209.1z"/>
		<path class="st1" d="M433.8,209.1c-48.7-83.5-181-53.7-208-94.3C212,94,196.5,69.9,174.1,57.3c-21.4-11.9-46.2-16.2-67.8-14.6
			C29.1,48.4-3.7,117.4,11.2,193.3C31,294.5,120.7,397.9,227.2,398.6C283,399,336.2,379,377.9,350.9c0.3-0.2,0.6-0.4,0.9-0.6
			C420.6,321.9,471,272.8,433.8,209.1z"/>
	</g>
</g>
<g id="Lines">
	<g>
		<path class="st2" d="M55.4,215.2H50c-12.1,0-21.9,9.8-21.9,21.9v120.3c0,12.1,9.8,21.9,21.9,21.9h74.4c12.1,0,21.9-9.8,21.9-21.9
			l0,0"/>
		<path class="st2" d="M140.2,101.6V77.9c0-7.4,6-13.4,13.4-13.4h96.7c7.4,0,13.4,6,13.4,13.4l0,0"/>
	</g>
</g>
<g id="Shadow">
	<g>
		<ellipse class="st0" cx="227.2" cy="445.4" rx="191.5" ry="26.8"/>
		<ellipse class="st3" cx="227.2" cy="445.4" rx="191.5" ry="26.8"/>
	</g>
</g>
<g id="Window">
	<g>
		<path class="st4" d="M407.8,133.5v180.1c0,12.3-9.9,22.2-22.2,22.2H68.9c-12.3,0-22.2-9.9-22.2-22.2V133.5c0-0.5,0-1,0.1-1.6
			c0.8-11.5,10.4-20.6,22.1-20.6h316.7c11.7,0,21.3,9.1,22.1,20.6C407.8,132.5,407.8,133,407.8,133.5z"/>
		<path d="M377.3,327.4h-299c-11.5,0-20.8-9.3-20.8-20.8V140.3h340.6v166.3C398.1,318.1,388.8,327.4,377.3,327.4z"/>
		<path class="st5" d="M398.1,140.3v166.3c0,11.5-9.2,20.8-20.6,20.8H78.1c-11.4,0-20.6-9.3-20.6-20.8V140.3H398.1z"/>
		<path class="st6" d="M407.7,132H46.8c0.8-11.5,10.4-20.6,22.1-20.6h316.7C397.3,111.3,406.9,120.4,407.7,132z"/>
		<path d="M91.1,121.6c0,2.2-1.8,3.9-3.9,3.9c-2.2,0-3.9-1.8-3.9-3.9c0-2.2,1.8-3.9,3.9-3.9C89.4,117.7,91.1,119.5,91.1,121.6z"/>
		<path d="M107.7,121.6c0,2.2-1.8,3.9-3.9,3.9c-2.2,0-3.9-1.8-3.9-3.9c0-2.2,1.8-3.9,3.9-3.9C106,117.7,107.7,119.5,107.7,121.6z"/>
		<circle cx="120.4" cy="121.6" r="3.9"/>
		<path class="st7" d="M398.1,140.3v166.3c0,11.5-9.3,20.8-20.8,20.8h-299c-10.1,0-18.5-7.2-20.4-16.8l0,0v0c-0.3-1.3-0.4-2.6-0.4-4
			V140.3H398.1z"/>
		<path d="M397.8,166c-1.5-0.8-3-1.5-4.6-1.9l-1.9-8.4h-7.9l-1.9,8.4c-1.6,0.4-3.2,1.1-4.6,1.9l-7.2-4.6l-5.6,5.6l4.5,7.2
			c-0.8,1.5-1.5,3-1.9,4.6l-8.4,1.9v7.9l8.4,1.9c0.4,1.6,1.1,3.2,1.9,4.7l-4.6,7.2l5.6,5.6l7.2-4.6c1.5,0.8,3,1.5,4.6,1.9l1.9,8.3
			h7.9l1.9-8.3c1.6-0.5,3.2-1.1,4.6-1.9l0.4,0.2v-37.8L397.8,166z M387.3,195c-5.7,0-10.3-4.6-10.3-10.3c0-5.7,4.6-10.3,10.3-10.3
			c5.7,0,10.3,4.6,10.3,10.3C397.6,190.4,393,195,387.3,195z"/>
		<path d="M254.7,174.1v-16.7l-17.6-3.9c-1-3.4-2.3-6.7-4-9.8l2.1-3.4h-83.1l2.1,3.3c-1.7,3.1-3.1,6.4-4,9.8l-17.6,3.9V174l17.6,3.9
			c0.9,3.4,2.3,6.7,4,9.8l-9.7,15.2l11.8,11.8l15.2-9.7c3.1,1.7,6.4,3.1,9.8,4l3.9,17.6h16.7l3.9-17.6c3.4-1,6.7-2.3,9.7-4l15.2,9.7
			l11.8-11.8l-9.6-15.2c1.7-3.1,3.1-6.4,4-9.8L254.7,174.1z M193.7,187.3c-11.9,0-21.6-9.7-21.6-21.6s9.7-21.6,21.6-21.6
			c11.9,0,21.6,9.7,21.6,21.6S205.6,187.3,193.7,187.3z"/>
		<path d="M143.6,289l0.7-13.3l-13.8-3.9c-0.6-2.7-1.6-5.4-2.8-7.9l8.3-11.7l-8.9-9.9l-12.5,7c-2.4-1.5-4.9-2.7-7.6-3.6l-2.4-14.1
			L91.4,231l-3.8,13.8c-2.7,0.6-5.4,1.6-7.9,2.8L68,239.3l-9.9,8.9l7.1,12.5c-1.5,2.4-2.7,4.9-3.6,7.6l-4,0.7v18l2.9,0.8
			c0.6,2.7,1.6,5.4,2.8,7.9l-5.7,8l0.4,6.9v0l0,0l5.9,6.6l12.5-7c2.4,1.5,4.9,2.8,7.6,3.7l2.3,13.6v0l0.1,0.6l13.3,0.7l0.4-1.3v0
			l3.5-12.5c2.8-0.6,5.4-1.6,7.9-2.8l11.6,8.3l9.9-8.9l-7-12.5c1.5-2.4,2.7-4.9,3.6-7.6L143.6,289z M108.3,268.3
			c-6.4-7.1-17.2-7.6-24.3-1.3c-7.1,6.4-7.6,17.2-1.3,24.3c6.4,7.1,17.2,7.6,24.3,1.3C114.1,286.2,114.7,275.3,108.3,268.3z"/>
		<path d="M249.8,269.2c0.5-2.1,0.8-4.2,0.8-6.3l9.5-5l-2.6-9.7l-10.8,0.5c-1.1-1.8-2.4-3.5-3.9-5l3.2-10.3l-8.7-5l-7.3,7.9
			c-2-0.5-4.2-0.8-6.3-0.8l-5-9.6l-9.7,2.6l0.5,10.8c-1.8,1.1-3.5,2.4-5,3.9l-10.3-3.2l-5,8.7l8,7.3c-0.5,2.1-0.8,4.2-0.8,6.3
			l-9.6,5l2.6,9.7l10.8-0.5c1.1,1.8,2.4,3.5,3.9,5l-3.2,10.3l8.7,5l7.2-7.9c2.1,0.5,4.2,0.8,6.3,0.8l5,9.6l9.7-2.6l-0.4-9.2
			l-0.1-1.6c1.8-1.1,3.5-2.4,5.1-3.9l10.3,3.2l4.3-7.4l0.7-1.3L249.8,269.2z M227,275.1c-6.9,1.9-14-2.2-15.9-9.1
			c-1.9-6.9,2.2-14,9.1-15.9c6.9-1.9,14,2.2,15.9,9.1C237.9,266.1,233.9,273.2,227,275.1z"/>
		<path d="M360.6,286.2l2.2-13.3l-13.5-5.4c-0.3-2.8-1-5.6-1.9-8.3l9.7-10.8l-7.8-11l-13.4,5.7c-2.2-1.8-4.6-3.3-7.2-4.5l-0.8-14.5
			l-13.3-2.2l-5.4,13.4c-2.8,0.3-5.6,1-8.3,1.9l-10.8-9.7l-11,7.8l5.7,13.3c-1.6,2-2.9,4.1-4,6.3c-0.2,0.3-0.3,0.6-0.5,0.9
			l-14.5,0.8l-2.2,13.3l2.2,0.9l11.3,4.5c0.3,2.8,0.9,5.6,1.9,8.3l-9.7,10.8l7.8,11l13.4-5.7c2.2,1.8,4.6,3.3,7.2,4.5l0.8,14.4
			l13.3,2.2l5.4-13.3c2.8-0.3,5.6-1,8.3-1.9l10.8,9.7l11-7.9l-5.7-13.4c1.8-2.2,3.3-4.7,4.6-7.2L360.6,286.2z M323.3,285.6
			c-7.8,5.6-18.7,3.8-24.3-4c-5.6-7.8-3.8-18.7,4-24.3c7.8-5.6,18.7-3.8,24.3,4C332.9,269.2,331.1,280,323.3,285.6z"/>
	</g>
</g>
<g id="Graphics">
	<g>
		<g>
			<path class="st6" d="M180.3,358.8H75.7c-7.2,0-13.1-5.9-13.1-13.1V200.9c0-7.2,5.9-13.1,13.1-13.1h104.6
				c7.2,0,13.1,5.9,13.1,13.1v144.8C193.4,352.9,187.6,358.8,180.3,358.8z"/>
			<path class="st8" d="M179.3,359.9H74.7c-7.2,0-13.1-5.9-13.1-13.1V202c0-7.2,5.9-13.1,13.1-13.1h104.6c7.2,0,13.1,5.9,13.1,13.1
				v144.8C192.4,354,186.5,359.9,179.3,359.9z"/>
			<g>
				<path class="st4" d="M205.6,213.8v144.8c0,7.2-5.9,13.1-13.1,13.1H87.9c-7.2,0-13.1-5.9-13.1-13.1V213.8
					c0-7.2,5.9-13.1,13.1-13.1h104.6C199.7,200.7,205.6,206.6,205.6,213.8z"/>
				<path class="st6" d="M205.6,213.8v7.8H74.8v-7.8c0-7.2,5.9-13.1,13.1-13.1h104.6C199.7,200.7,205.6,206.6,205.6,213.8z"/>
				<rect x="87.1" y="230.5" class="st0" width="32.2" height="5.4"/>
				<rect x="87.1" y="278.9" class="st0" width="32.2" height="5.4"/>
				<rect x="87.1" y="322.8" class="st0" width="32.2" height="5.4"/>
				<g>
					<rect x="87.1" y="243.9" width="91.4" height="4"/>
					<rect x="87.1" y="251.5" width="74.9" height="3.9"/>
					<rect x="87.1" y="258.9" width="84.7" height="3.9"/>
					<rect x="87.1" y="266.4" width="84.7" height="3.9"/>
				</g>
				<g>
					<rect x="87.1" y="287.8" width="91.4" height="4"/>
					<rect x="87.1" y="295.4" width="74.9" height="3.9"/>
					<rect x="87.1" y="302.8" width="84.7" height="3.9"/>
				</g>
				<g>
					<rect x="87.1" y="336" width="91.4" height="4"/>
					<rect x="87.1" y="343.5" width="74.9" height="3.9"/>
					<rect x="87.1" y="351" width="84.7" height="3.9"/>
				</g>
			</g>
		</g>
		<g>
			<path class="st9" d="M353,100.3v58.5c0,8.6-7,15.6-15.6,15.6H202.6c-8.6,0-15.6-7-15.6-15.6v-58.5c0-8.6,7-15.6,15.6-15.6h134.8
				C346,84.7,353,91.7,353,100.3z"/>
			<path class="st6" d="M353,100.3v1.3H186.9v-1.3c0-8.6,7-15.6,15.6-15.6h134.8C346,84.7,353,91.7,353,100.3z"/>
			<path d="M211.3,95.9c-0.9,0.9-2.5,0.9-3.4,0c-0.9-0.9-0.9-2.5,0-3.4c0.9-0.9,2.5-0.9,3.4,0C212.3,93.5,212.3,95,211.3,95.9z"/>
			<path d="M222.5,95.9c-0.9,0.9-2.5,0.9-3.4,0c-0.9-0.9-0.9-2.5,0-3.4c0.9-0.9,2.5-0.9,3.4,0C223.4,93.5,223.4,95,222.5,95.9z"/>
			<path d="M233.6,95.9c-0.9,0.9-2.5,0.9-3.4,0c-0.9-0.9-0.9-2.5,0-3.4c0.9-0.9,2.5-0.9,3.4,0C234.5,93.5,234.5,95,233.6,95.9z"/>
			<rect x="197.5" y="112.4" class="st2" width="54.3" height="46.9"/>
			<g>
				<rect x="260.2" y="112.4" width="62.5" height="3.3"/>
				<rect x="260.2" y="119.2" width="47.9" height="3.3"/>
				<rect x="260.2" y="126" width="71.4" height="3.3"/>
				<rect x="260.2" y="132.7" width="60.8" height="3.3"/>
			</g>
		</g>
	</g>
</g>
<g id="Character">
	<g>
		<path class="st0" d="M274.1,440.5c0,0-29,8.3-33,9.8c-3.7,1.3-13.7,4.8-21.2,3.7c-0.7-0.1-1.5-0.3-2.1-0.5c-7.6-2.3-11-4.4-12-9.1
			c-1-4.8,2.8-8.3,6.4-10.5c3.6-2.3,23.4-4.6,23.4-4.6l4.8,1.4h0L274.1,440.5z"/>
		<path class="st10" d="M219.9,453.9c-0.7-0.1-1.5-0.3-2.1-0.5c-7.6-2.3-11-4.4-12-9.1c-1-4.8,2.8-8.3,6.4-10.5
			c3.6-2.3,23.4-4.6,23.4-4.6l4.8,1.4c-4.3,2-20.4,3.1-23.9,5.1c-3.5,2-5.2,5.8-3.1,11C214.4,449.4,217.4,452,219.9,453.9z"/>
		<path class="st11" d="M269.7,441.6c0,0-21.8,5.6-30.4,9.3c-8.6,3.6-25.1,5.2-31-2.3c-5.9-7.4-0.7-13.9,5.2-15.3
			c5.9-1.4,17.7-3.7,24.2-2.8"/>
		<path class="st11" d="M220.3,453.5c0,0-11.1-6.1-7.4-14.6c2.7-6.3,17.5-4.9,24.8-8.4"/>
		<path class="st0" d="M362.4,455.3c-0.3,3-1.3,5.8-4.3,7.6c-2,1.2-4.8,1.9-8.9,1.8c-10.2-0.1-29.3-7.4-29.3-7.4l-17.9-9.9l9.3-14.7
			l2.5-4l6.6,1.5c0,0,5.4,3.1,10.9,5.5c5.5,2.5,18.8,3,23.5,6.8C359.5,446.2,362.9,450.3,362.4,455.3z"/>
		<path class="st10" d="M362.4,455.3c-0.3,3-1.3,5.8-4.3,7.6c0.6-2.3,1-5.5-0.5-8.9c-2-4.5-8.5-8.4-17.1-9.1
			c-8.5-0.7-15.1-4.7-18.5-6.5c-2.7-1.4-8.3-4.4-10.7-5.7l2.5-4l6.6,1.5c0,0,5.4,3.1,10.9,5.5c5.5,2.5,18.8,3,23.5,6.8
			C359.5,446.2,362.9,450.3,362.4,455.3z"/>
		<path class="st11" d="M305.9,450.2c12.7,7.3,27.3,12.6,41.9,14.3c3.3,0.4,7,0.4,9.2-2c1.2-1.4,1.7-3.3,1.5-5.1
			c-0.4-4.6-4.3-8.2-8.5-10.1c-4.2-1.8-8.9-2.3-13.4-3.3c-4.5-1-8.8-2.6-12.9-4.7c-3.2-1.7-6.4-3.7-9.9-4.5
			c-3.6-0.8-7.8,0.2-9.7,3.3"/>
		<path class="st11" d="M355.9,463.7c3.3-1.7,6-4.8,6.5-8.5c0.6-4.3-1.8-8.7-5.3-11.4c-3.5-2.7-7.8-3.9-12.1-4.8
			c-4.3-0.9-8.7-1.5-12.8-3.1c-6.3-2.5-12.5-7.3-19-5.6"/>
		<path class="st0" d="M326.1,295.3l-30.3-11.5l-0.4-0.1c0,0,0.1-0.8,0.2-2c0.2-2.4,0.3-6.4-0.8-7.7c-1.7-2-6.5-0.3-11.1-2.5
			c-4.7-2.1-13.3,1.7-13.3,1.7s-6.2-1.1-9,3.4c-1.4,3.6-0.9,9-0.9,9s-0.2,0.1-0.6,0.2c-3.6,1.3-23.2,8.7-27.4,11.7
			c-4.6,3.3-9.7,36.6-11.3,46.4c-1.6,9.8-4.5,18.6-3.1,22c1.5,3.4,22.6,19.6,34.7,23.8c12.1,4.2,55.2,3,55.2,3s0.7-0.2,2-0.6
			c7.3-2.3,33.1-12,46.8-34.7C356.8,357.4,343.6,313.9,326.1,295.3z M244.3,351.4c-2.2,1.6-1,7.7-1,7.7l-3.8-3.3l9.5-23.4l4.1,18
			C253.1,350.3,246.5,349.8,244.3,351.4z M320.5,366.3c-1,0.5,3-10.7,1.1-13.3c-1.9-2.6-7.7-2.3-7.7-2.3l0.5-3.1
			c0.1-0.3,3.4-17.6,3.4-17.6l1.1-1.4c0,0,11.8,20.2,13.9,27.3C332.8,356,319.9,366.3,320.5,366.3z"/>
		<path class="st10" d="M269,222.3l-15.6,16.6c0,0-2.2,1.9-1.3,6.7c0.9,4.8,2.9,9,4.4,9.3c1.5,0.3,3.6,0.3,3.6,0.3s3.4,7.3,5.7,10.1
			c0,0,0.8,11.2,0.4,14.3c0,0,5.6,4.9,10.9,5.5c5.3,0.6,13.5-7.5,13.5-7.5l2-9.9c0,0,4.8-7.3,5.1-9.2c0.3-1.9,2.5-1.4,3.6-2.4
			c1.1-1,3.6-5.2,4-9.3c0.4-4,0.4-8.7-4.3-7.3c-4.1-1.1-1.5-9.7-1.5-9.7l-7.1-6.3L269,222.3z"/>
		<path class="st3" d="M295.9,283.7c-0.2,0.6-0.5,1.2-0.8,1.8c-2.6,4.9-13.8,14.1-13.8,14.1l-3.4-10.4l-1.9,10.4
			c-3.8-1.6-15.2-11.5-15.2-11.5s-0.4-0.9-0.9-2.4c0.4-0.1,0.6-0.2,0.6-0.2s-0.5-5.4,0.9-9c2.7-4.5,9-3.4,9-3.4s8.6-3.8,13.3-1.7
			c4.7,2.1,9.5,0.5,11.1,2.5c1.7,2,0.7,9.7,0.7,9.7L295.9,283.7z"/>
		<path class="st8" d="M326.1,295.3l-30.3-11.5l-0.4-0.1c0,0,0.1-0.8,0.2-2l-0.6,3.9l-4.5,6.1c0,0,7.6,2.7,14,6.2
			c4.5,2.4,7,7.2,6.4,12.2l-5.6,47.7l-2.3,27.1l6.9,7.2c7.3-2.3,33.1-12,46.8-34.7C356.8,357.4,343.6,313.9,326.1,295.3z
			 M320.5,366.3c-1,0.5,3-10.7,1.1-13.3c-1.9-2.6-7.7-2.3-7.7-2.3l0.5-3.1c0.1-0.3,3.4-17.6,3.4-17.6l1.1-1.4
			c0,0,11.8,20.2,13.9,27.3C332.8,356,319.9,366.3,320.5,366.3z"/>
		<path class="st8" d="M255.1,353l-4.7-15.7c0,0-8.4-28.8-14.2-35.9l1.5,20.3c0,0-5,24.2-9.6,31.4c-4.6,7.2-5.6,9,0,9
			c5.6,0,19.2,10.8,19.2,10.8l-1-9L255.1,353z M243.3,359.1l-3.8-3.3l9.5-23.4l4.1,18c0,0-6.5-0.5-8.7,1.1
			C242.1,353,243.3,359.1,243.3,359.1z"/>
		<path class="st11" d="M265.7,265.3c0,0,0.9,8.5,0,12.4"/>
		<path class="st11" d="M291.3,276.5c0,0,0-4.1,0.9-8.1"/>
		<path class="st11" d="M293.6,228.6c0,0,5.1,6.5,4.9,11.3c-0.3,4.9-0.7,10.7-0.5,16.3c0.1,5.7-9.1,17.5-13.8,18.6
			c-4.7,1.1-8.8,1.3-11.9-1.7c-3-3-6.1-7.2-10-12.6c-4-5.4-3-17.2-3-17.2"/>
		<path class="st11" d="M281.3,247.7c-0.3,1.8-0.4,3.6-0.4,5.4c0,1.5,0.3,3.1,1.3,4.2c0.6,0.6,1.4,1,1.5,1.8
			c0.1,0.7-0.4,1.4-1.1,1.7c-0.6,0.4-1.3,0.6-1.9,1.1"/>
		<path class="st11" d="M273.1,262.6c0,0,0.6,3.8,5.7,4.6"/>
		<path d="M273.6,250.6c0,1.1-0.5,2-1.1,2c-0.6,0-1.1-0.9-1.1-2c0-1.1,0.5-2,1.1-2C273.2,248.6,273.6,249.5,273.6,250.6z"/>
		<path d="M288.9,251.1c0,1.1-0.5,2-1.1,2c-0.6,0-1.1-0.9-1.1-2c0-1.1,0.5-2,1.1-2C288.5,249.1,288.9,250,288.9,251.1z"/>
		<path class="st12" d="M285.9,246.3c0,0,5-5,9.2,0.6"/>
		<path class="st12" d="M275.3,246.4c0,0-3.2-3.5-8.1,0"/>
		<path d="M266.1,269.9c0,0,3,8.4,9.9,10.8c6.8,2.4,15.9-10,15.9-10l-0.5-1.6c0,0-5.9,7.7-12.5,6.4c-6.6-1.3-13.1-10.2-13.1-10.2
			L266.1,269.9z"/>
		<path class="st11" d="M260,254.8c0,0-4.1,1.4-5.1-1.7c-1.1-3.2-4.8-11.5-1.5-14.3c3.2-2.8,5.8,3.7,5.8,3.7"/>
		<path class="st11" d="M298,256.6c0,0,3.8,0.8,4.9-2.4c1.1-3.2,4.8-11.5,1.5-14.3c-3.2-2.8-5.8,3.7-5.8,3.7"/>
		<path d="M259.2,250.6c1.1-0.1,3-1.1,3.6-2.1c0.6-1,0.8-2.1,1-3.2c0.4-2.1,0.6-4.3,0.6-6.4c0-0.8,0-1.7,0.2-2.5
			c0.3-0.8,0.8-1.6,1.4-2.2c1.4-1.7,3.1-3.1,4.5-4.8c1.3-1.7,2.3-3.9,2-6c0,0,9.2,8.4,22.5,5.8c7.1-1.4,14-7.7,13.2-15.5
			c-0.3-2.8-2.4-4.8-5-5.5c-3.5-0.9-6.7,1-9.9,2.2c-5.8,2.2-11.5-1.6-17.4-2.2c-5-0.5-11.2,0.1-13.8,5.1c0,0-9.1,1.1-13,8.5
			c-4,7.4,3.6,17.7,3.6,17.7s3-3.7,6.9,3.8L259.2,250.6z"/>
		<path d="M294.2,226.7c0,0-2.3,12.2,3.8,18.1c0,0,1.3-3.7,2.7-4.6c0,0,3.4-6.4-1.1-13.5C295.1,219.6,294.2,226.7,294.2,226.7z"/>
		<path class="st13" d="M305.4,212.8c-0.9,3.4-3.7,6-7,7.3c-8.5,3.5-16.7-0.4-25.2-1.1c-6.9-0.6-14.6,5.6-15.1,12.8"/>
		<path class="st13" d="M252.9,229.8c0.1-5.6,3.8-11,9-13.1"/>
		<path class="st11" d="M263.8,276.5c0,0,5.6,6.2,13.2,9c0,0,10.2-2.9,15.3-10"/>
		<ellipse transform="matrix(0.909 -0.4169 0.4169 0.909 -79.8656 135.5257)" class="st11" cx="270.4" cy="250.6" rx="9" ry="9"/>
		<ellipse transform="matrix(0.9925 -0.1219 0.1219 0.9925 -28.3898 37.2808)" class="st11" cx="290.5" cy="250.6" rx="9" ry="9"/>
		<path class="st11" d="M265.7,273.2c0,0-2.7,0.6-4.3,3.4c-1.6,2.8-0.6,11.6-0.6,11.6s8.2,8.1,15.2,11.5l2.1-11.6l3.2,11.6
			c0,0,10.8-7.7,13.8-14.1c0,0,1-7.5,0-10s-3.2-2.4-3.2-2.4"/>
		<path class="st11" d="M252.9,350.7c0,0-3.2-21.5-7.5-30.3"/>
		<path class="st11" d="M236.2,301.4c0,0,4.1,5.7,6.6,11.1"/>
		<path class="st11" d="M320.5,317.4c1.1-4.3,2.3-8,3.5-10.5"/>
		<path class="st11" d="M313.8,350.7c0,0,2.3-14.7,5.1-26.9"/>
		<path class="st11" d="M317.8,330c2.2-2.9,5.4-5.1,8.9-6.1"/>
		<path class="st11" d="M295.5,283.6c0,0,18.6,7.4,30.7,11.7c0,0,14.8,13.9,30.7,62.1c0,0-14.5,24.5-42.2,32.3"/>
		<path class="st11" d="M319.4,367.1l13.4-11.2c0,0,7.1-5.4,14.4-1.7"/>
		<path class="st11" d="M318.9,328.7c0,0,11.1,16.3,13.9,27.3"/>
		<path class="st11" d="M243.4,359.7l-3.9-3.7c0,0-5.8-1-12.4,3.4"/>
		<path class="st11" d="M239.5,356c0,0,4.9-16,9.6-24.2"/>
		<path class="st11" d="M260.5,285.5c0,0-26.8,10.1-29.4,13c-2.6,2.9-12.6,59.2-12.9,65.6c-0.2,5.8,20.6,18.7,31,24.1"/>
		<path class="st4" d="M357.5,276.5H327c-3.6,0-6.5-2.9-6.5-6.5v-17.9c0-3.6,2.9-6.5,6.5-6.5h30.6c3.6,0,6.5,2.9,6.5,6.5V270
			C364.1,273.6,361.2,276.5,357.5,276.5z"/>
		<polyline class="st11" points="334.5,254.8 326.1,260.1 333.9,267 		"/>
		<polyline class="st11" points="349.8,267.5 357.4,261.1 348.7,255.4 		"/>
		<line class="st11" x1="338.6" y1="271.5" x2="344.8" y2="252.1"/>
		<path d="M280.5,304.6c0,1-0.8,1.8-1.8,1.8c-1,0-1.8-0.8-1.8-1.8c0-1,0.8-1.8,1.8-1.8C279.7,302.8,280.5,303.6,280.5,304.6z"/>
		<g>
			<path d="M311.6,398.8h-61c-0.8,0-1.4-0.6-1.4-1.4l0,0c0-0.8,0.6-1.4,1.4-1.4h61c0.8,0,1.4,0.6,1.4,1.4l0,0
				C313,398.1,312.3,398.8,311.6,398.8z"/>
			<path class="st4" d="M313.7,394l8.2-38.4c0.5-2.5-1.4-4.9-4-4.9h-71.3c-2.6,0-4.5,2.4-4,4.9l7.3,37.1c0.4,1.9,2,3.2,3.9,3.3
				l55.8,1.3C311.6,397.3,313.3,396,313.7,394z"/>
			<path d="M287.7,372.8c0,3.1-2.5,5.7-5.7,5.7s-5.7-2.5-5.7-5.7c0-3.1,2.5-5.7,5.7-5.7S287.7,369.7,287.7,372.8z"/>
			<line class="st11" x1="298.9" y1="354.3" x2="307.3" y2="354.3"/>
			<line class="st11" x1="258.4" y1="354.3" x2="290.6" y2="354.3"/>
		</g>
		<path d="M313.8,434.8l-6.5,17.1c0,0-16.6-4.2-37.8-8.5c-22.2-4.6-45.4-10.4-57.4-31.5c-1.5-2.6-2.4-5.6-1.8-8.5
			c1.7-7.3,11.2-9.3,17.5-10c3.9-0.5,7.9-0.6,11.8-0.7c2,0,8.7-1.1,10.3,0.1c0,0,4.2,3.1,7.7,4.6c3.5,1.5,55.4-1.4,55.4-1.4
			s1.5-3.3,1.6-6.2c8.1-4.1,27-7.6,35-6.1c12.5,2.4,19.8,9.7,18.5,17.4C366.6,408.7,339,429.2,313.8,434.8z"/>
		<path class="st14" d="M313.8,434.8c0,0-15.8-4.2-28.6-12.9c-12.9-8.7-22.9-18.8-40.9-16.7"/>
		<path class="st14" d="M282.2,419.8c8.1-2.3,14.1-7.6,20.6-12.7c6.9-5.4,14.2-10.5,22.1-14.5"/>
		<line class="st11" x1="279.4" y1="252.1" x2="281.8" y2="252.1"/>
	</g>
</g>
</svg>
