<?xml version="1.0" encoding="utf-8"?>
<!-- Generator: Adobe Illustrator 25.4.1, SVG Export Plug-In . SVG Version: 6.00 Build 0)  -->
<svg version="1.1" id="Capa_1" xmlns="http://www.w3.org/2000/svg" xmlns:xlink="http://www.w3.org/1999/xlink" x="0px" y="0px"
	 viewBox="0 0 1440 231.5" style="enable-background:new 0 0 1440 231.5;" xml:space="preserve">
<style type="text/css">
	.st0{fill:#5C2751;}
	
		.st1{clip-path:url(#SVGID_00000155826780886582533080000007534170025424468387_);fill:#4BC0D9;stroke:#FFFFFF;stroke-miterlimit:10;}
</style>
<g>
	<g>
		<g>
			<path id="SVGID_1_" class="st0" d="M0,15.5c0,0,55.5-12.7,102.5-6.5c71.2,9.4,168.3,37.5,257.5,72.8c114.4,45.3,240,37,360,16
				s240-75,360-80s240,37,300,58.7l60,21.3v160h-60c-60,0-180,0-300,0s-240,0-360,0s-240,0-360,0s-240,0-300,0H0V15.5z"/>
		</g>
		<g>
			<g>
				<defs>
					<path id="SVGID_00000113346649846816134850000003145612805471909260_" d="M0-30.1L60-8.8c22.8,8.2,61.4,5.5,98.2,17.6
						C218.3,28.7,285.5,65.1,360,81.9c120,27,240,37,360,16s240-75,360-80s240,37,300,58.7l60,21.3v160h-60c-60,0-180,0-300,0
						s-240,0-360,0s-240,0-360,0s-240,0-300,0H0V-30.1z"/>
				</defs>
				<clipPath id="SVGID_00000047021057693936827240000008691674123580865926_">
					<use xlink:href="#SVGID_00000113346649846816134850000003145612805471909260_"  style="overflow:visible;"/>
				</clipPath>
				
					<rect x="39.2" y="-377.4" style="clip-path:url(#SVGID_00000047021057693936827240000008691674123580865926_);fill:#4BC0D9;stroke:#FFFFFF;stroke-miterlimit:10;" width="1440" height="288"/>
			</g>
		</g>
	</g>
</g>
</svg>
